<svg width="166" height="155" viewBox="0 0 166 155" fill="none" xmlns="http://www.w3.org/2000/svg">
<path fill-rule="evenodd" clip-rule="evenodd" d="M150.254 77.9986C150.417 76.0206 150.5 74.02 150.5 72C150.5 32.2355 118.265 0 78.5 0C59.4744 0 42.1724 7.37935 29.3 19.432L14.2216 19.3815L6 35.8248H16.234C10.045 46.4545 6.5 58.8133 6.5 72C6.5 111.765 38.7355 144 78.5 144C110.214 144 137.139 123.496 146.741 95.0206H165.5V77.9986H150.254ZM150.254 77.9986H132.574H114.105L107.238 106.531C106.212 106.689 105.068 106.847 103.805 107.005C102.542 107.083 101.121 107.123 99.5426 107.123C93.8598 107.123 89.5582 105.544 86.6379 102.387C83.7965 99.1512 82.3758 94.0604 82.3758 87.1147C82.3758 82.5369 83.0467 78.1959 84.3884 74.0917C85.7302 69.9874 87.7034 66.3962 90.308 63.318C92.9126 60.1609 96.0697 57.6747 99.7794 55.8593C103.568 54.044 107.869 53.1363 112.684 53.1363C115.683 53.1363 118.722 53.5704 121.8 54.4386C124.957 55.3068 127.917 56.6091 130.68 58.3456L137.31 44.0201C133.916 41.8102 130.088 40.1527 125.826 39.0477C121.642 37.9427 117.657 37.3902 113.868 37.3902C105.659 37.3902 98.3981 38.8898 92.0839 41.8891C85.7697 44.8884 80.4815 48.7953 76.2194 53.6099C75.9069 53.9571 75.5999 54.308 75.2984 54.6624L83.7306 19.5525H65.2615L29.3 19.432C24.1903 24.2163 19.7785 29.737 16.234 35.8248H61.9072L52.4752 73.0656C51.8438 75.6702 51.094 77.8802 50.2257 79.6955C49.4365 81.5108 48.4499 83.0105 47.2659 84.1944C46.082 85.2994 44.6613 86.1281 43.0038 86.6806C41.4253 87.1542 39.531 87.391 37.321 87.391C34.2429 87.391 31.5593 86.8779 29.2704 85.8519C27.0604 84.8258 25.0083 83.6419 23.114 82.3001L14.945 96.0336C17.8653 98.2435 21.2198 100.019 25.0083 101.361C28.8758 102.624 32.9405 103.255 37.2027 103.255C42.4908 103.255 46.9897 102.664 50.6993 101.48C54.4089 100.217 57.5266 98.4409 60.0523 96.152C61.3056 94.9769 62.4424 93.695 63.4625 92.3061C63.7382 96.0452 64.3992 99.4845 65.4457 102.624C66.8664 106.886 68.9975 110.517 71.8389 113.516C74.6803 116.515 78.1926 118.844 82.3758 120.501C86.6379 122.08 91.5314 122.869 97.0563 122.869C103.528 122.869 108.856 122.435 113.039 121.567C117.222 120.777 120.419 119.949 122.629 119.081L128.453 95.0206H146.741C148.567 89.6061 149.767 83.9034 150.254 77.9986Z" fill="url(#paint0_linear_436_31)" style="mix-blend-mode:darken"/>
<path fill-rule="evenodd" clip-rule="evenodd" d="M144.254 88.9986C144.417 87.0206 144.5 85.02 144.5 83C144.5 43.2355 112.265 11 72.5 11C53.4744 11 36.1724 18.3793 23.3 30.432L8.22159 30.3815L0 46.8248H10.234C4.04501 57.4545 0.5 69.8133 0.5 83C0.5 122.765 32.7355 155 72.5 155C104.214 155 131.139 134.496 140.741 106.021H159.5V88.9986H144.254ZM144.254 88.9986H126.574H108.105L101.238 117.531C100.212 117.689 99.0675 117.847 97.8047 118.005C96.5418 118.083 95.1211 118.123 93.5426 118.123C87.8598 118.123 83.5582 116.544 80.6379 113.387C77.7965 110.151 76.3758 105.06 76.3758 98.1147C76.3758 93.5369 77.0467 89.1959 78.3884 85.0917C79.7302 80.9874 81.7034 77.3962 84.308 74.318C86.9126 71.1609 90.0697 68.6747 93.7794 66.8593C97.5679 65.044 101.869 64.1363 106.684 64.1363C109.683 64.1363 112.722 64.5704 115.8 65.4386C118.957 66.3068 121.917 67.6091 124.68 69.3456L131.31 55.0201C127.916 52.8102 124.088 51.1527 119.826 50.0477C115.642 48.9427 111.657 48.3902 107.868 48.3902C99.6595 48.3902 92.3981 49.8898 86.0839 52.8891C79.7697 55.8884 74.4815 59.7953 70.2194 64.6099C69.9069 64.9571 69.5999 65.308 69.2984 65.6624L77.7306 30.5525H59.2615L23.3 30.432C18.1903 35.2163 13.7785 40.737 10.234 46.8248H55.9072L46.4752 84.0656C45.8438 86.6702 45.094 88.8802 44.2257 90.6955C43.4365 92.5108 42.4499 94.0105 41.2659 95.1944C40.082 96.2994 38.6613 97.1281 37.0038 97.6806C35.4253 98.1542 33.531 98.391 31.321 98.391C28.2429 98.391 25.5593 97.8779 23.2704 96.8519C21.0604 95.8258 19.0083 94.6419 17.114 93.3001L8.945 107.034C11.8653 109.244 15.2198 111.019 19.0083 112.361C22.8758 113.624 26.9405 114.255 31.2027 114.255C36.4908 114.255 40.9897 113.664 44.6993 112.48C48.4089 111.217 51.5266 109.441 54.0523 107.152C55.3056 105.977 56.4424 104.695 57.4625 103.306C57.7382 107.045 58.3992 110.485 59.4457 113.624C60.8664 117.886 62.9975 121.517 65.8389 124.516C68.6803 127.515 72.1926 129.844 76.3758 131.501C80.6379 133.08 85.5314 133.869 91.0563 133.869C97.5284 133.869 102.856 133.435 107.039 132.567C111.222 131.777 114.419 130.949 116.629 130.081L122.453 106.021H140.741C142.567 100.606 143.767 94.9034 144.254 88.9986Z" fill="url(#paint1_linear_436_31)" style="mix-blend-mode:screen"/>
<defs>
<linearGradient id="paint0_linear_436_31" x1="165.5" y1="-4.29153e-06" x2="22.7842" y2="164.005" gradientUnits="userSpaceOnUse">
<stop stop-color="#18F281"/>
<stop offset="1" stop-color="#7D6EAF"/>
</linearGradient>
<linearGradient id="paint1_linear_436_31" x1="155" y1="2.5" x2="4.50001" y2="154.5" gradientUnits="userSpaceOnUse">
<stop stop-color="#18F281"/>
<stop offset="1" stop-color="#7D6EAF"/>
</linearGradient>
</defs>
</svg>
